<svg xmlns="http://www.w3.org/2000/svg" xmlns:xlink="http://www.w3.org/1999/xlink" width="500" zoomAndPan="magnify" viewBox="0 0 375 374.999991" height="500" preserveAspectRatio="xMidYMid meet" version="1.0"><defs><g/><clipPath id="8f4579dbcb"><path d="M 111 116.722656 L 199 116.722656 L 199 228 L 111 228 Z M 111 116.722656 " clip-rule="nonzero"/></clipPath><clipPath id="3cf1a95d89"><path d="M 176 116.722656 L 264 116.722656 L 264 228 L 176 228 Z M 176 116.722656 " clip-rule="nonzero"/></clipPath><clipPath id="72c08fdbfc"><path d="M 67.164062 156 L 307.914062 156 L 307.914062 262 L 67.164062 262 Z M 67.164062 156 " clip-rule="nonzero"/></clipPath><clipPath id="317ab7809a"><path d="M 179 105 L 196 105 L 196 116.40625 L 179 116.40625 Z M 179 105 " clip-rule="nonzero"/></clipPath><clipPath id="c616c5ba1d"><path d="M 151.335938 46.65625 L 223.335938 46.65625 L 223.335938 116.40625 L 151.335938 116.40625 Z M 151.335938 46.65625 " clip-rule="nonzero"/></clipPath></defs><path fill="#ffffff" d="M 186.285156 221.0625 C 184.84375 221.0625 183.402344 220.539062 182.265625 219.503906 L 118.902344 161.675781 C 116.917969 159.863281 116.390625 156.945312 117.613281 154.554688 L 132.28125 125.929688 C 133.285156 123.976562 135.277344 122.730469 137.472656 122.6875 C 137.511719 122.6875 137.550781 122.6875 137.589844 122.6875 C 139.738281 122.6875 141.722656 123.84375 142.78125 125.722656 L 191.480469 212.175781 C 192.917969 214.726562 192.289062 217.941406 190 219.765625 C 188.910156 220.632812 187.597656 221.0625 186.285156 221.0625 Z M 186.285156 221.0625 " fill-opacity="1" fill-rule="nonzero"/><g clip-path="url(#8f4579dbcb)"><path fill="#004380" d="M 137.589844 128.648438 L 186.285156 215.101562 L 122.921875 157.273438 L 137.589844 128.648438 M 137.589844 116.726562 C 137.511719 116.726562 137.433594 116.726562 137.351562 116.726562 C 132.964844 116.8125 128.980469 119.304688 126.976562 123.210938 L 112.308594 151.835938 C 109.859375 156.621094 110.914062 162.457031 114.882812 166.078125 L 178.25 223.90625 C 180.519531 225.976562 183.398438 227.023438 186.289062 227.023438 C 188.90625 227.023438 191.53125 226.164062 193.710938 224.429688 C 198.292969 220.785156 199.546875 214.351562 196.675781 209.25 L 147.976562 122.796875 C 145.859375 119.042969 141.886719 116.726562 137.589844 116.726562 Z M 137.589844 116.726562 " fill-opacity="1" fill-rule="nonzero"/></g><path fill="#79bfea" d="M 122.921875 157.273438 L 186.285156 215.101562 L 131.878906 139.789062 Z M 122.921875 157.273438 " fill-opacity="1" fill-rule="nonzero"/><path fill="#ffffff" d="M 188.710938 221.0625 C 187.402344 221.0625 186.09375 220.632812 185.003906 219.765625 C 182.710938 217.941406 182.082031 214.726562 183.519531 212.175781 L 232.21875 125.722656 C 233.277344 123.84375 235.261719 122.6875 237.410156 122.6875 C 237.449219 122.6875 237.492188 122.6875 237.53125 122.6875 C 239.722656 122.730469 241.714844 123.976562 242.71875 125.929688 L 257.386719 154.554688 C 258.609375 156.945312 258.085938 159.863281 256.097656 161.675781 L 192.730469 219.503906 C 191.597656 220.539062 190.15625 221.0625 188.710938 221.0625 Z M 188.710938 221.0625 " fill-opacity="1" fill-rule="nonzero"/><g clip-path="url(#3cf1a95d89)"><path fill="#004380" d="M 237.410156 128.648438 L 252.078125 157.273438 L 188.710938 215.101562 L 237.410156 128.648438 M 237.410156 116.726562 C 233.113281 116.726562 229.140625 119.042969 227.023438 122.796875 L 178.324219 209.25 C 175.453125 214.351562 176.707031 220.785156 181.289062 224.429688 C 183.46875 226.164062 186.09375 227.023438 188.710938 227.023438 C 191.597656 227.023438 194.480469 225.980469 196.75 223.910156 L 260.117188 166.082031 C 264.085938 162.457031 265.140625 156.625 262.691406 151.839844 L 248.023438 123.210938 C 246.019531 119.304688 242.035156 116.816406 237.648438 116.730469 C 237.570312 116.726562 237.488281 116.726562 237.410156 116.726562 Z M 237.410156 116.726562 " fill-opacity="1" fill-rule="nonzero"/></g><path fill="#79bfea" d="M 252.082031 157.273438 L 188.714844 215.101562 L 243.121094 139.789062 Z M 252.082031 157.273438 " fill-opacity="1" fill-rule="nonzero"/><path fill="#ffffff" d="M 185.585938 237.867188 C 184.566406 237.867188 183.535156 237.605469 182.601562 237.0625 L 82.855469 179.234375 C 81.351562 178.363281 80.304688 176.875 79.984375 175.164062 C 79.667969 173.453125 80.113281 171.691406 81.207031 170.335938 L 104.292969 141.710938 C 105.394531 140.34375 107.042969 139.535156 108.792969 139.492188 C 108.839844 139.492188 108.886719 139.492188 108.933594 139.492188 C 110.636719 139.492188 112.261719 140.21875 113.394531 141.496094 L 190.050781 227.953125 C 191.988281 230.140625 192.054688 233.414062 190.203125 235.679688 C 189.039062 237.105469 187.324219 237.867188 185.585938 237.867188 Z M 185.585938 237.867188 " fill-opacity="1" fill-rule="nonzero"/><path fill="#004380" d="M 108.933594 145.453125 L 185.589844 231.90625 L 85.847656 174.078125 L 108.933594 145.453125 M 108.933594 133.53125 C 108.839844 133.53125 108.75 133.53125 108.65625 133.535156 C 105.148438 133.617188 101.855469 135.238281 99.652344 137.96875 L 76.566406 166.59375 C 74.382812 169.304688 73.492188 172.832031 74.125 176.25 C 74.757812 179.671875 76.855469 182.648438 79.867188 184.390625 L 179.609375 242.21875 C 181.484375 243.304688 183.542969 243.828125 185.585938 243.828125 C 189.0625 243.828125 192.484375 242.304688 194.820312 239.453125 C 198.523438 234.921875 198.394531 228.375 194.511719 223.996094 L 117.855469 137.542969 C 115.589844 134.988281 112.339844 133.53125 108.933594 133.53125 Z M 108.933594 133.53125 " fill-opacity="1" fill-rule="nonzero"/><path fill="#ffffff" d="M 189.414062 237.867188 C 187.675781 237.867188 185.960938 237.105469 184.796875 235.679688 C 182.945312 233.414062 183.011719 230.140625 184.949219 227.953125 L 261.605469 141.496094 C 262.738281 140.21875 264.363281 139.492188 266.066406 139.492188 C 266.113281 139.492188 266.160156 139.492188 266.207031 139.492188 C 267.957031 139.535156 269.605469 140.34375 270.707031 141.710938 L 293.792969 170.335938 C 294.886719 171.691406 295.332031 173.453125 295.015625 175.164062 C 294.695312 176.875 293.648438 178.363281 292.144531 179.234375 L 192.398438 237.0625 C 191.464844 237.605469 190.433594 237.867188 189.414062 237.867188 Z M 189.414062 237.867188 " fill-opacity="1" fill-rule="nonzero"/><path fill="#004380" d="M 266.066406 145.453125 L 289.152344 174.078125 L 189.410156 231.90625 L 266.066406 145.453125 M 266.066406 133.53125 C 262.660156 133.53125 259.410156 134.988281 257.144531 137.542969 L 180.488281 223.996094 C 176.609375 228.375 176.476562 234.921875 180.179688 239.453125 C 182.515625 242.308594 185.9375 243.828125 189.417969 243.828125 C 191.457031 243.828125 193.519531 243.304688 195.390625 242.222656 L 295.132812 184.394531 C 298.144531 182.648438 300.242188 179.675781 300.875 176.253906 C 301.511719 172.832031 300.617188 169.304688 298.433594 166.597656 L 275.347656 137.96875 C 273.144531 135.238281 269.851562 133.617188 266.34375 133.535156 C 266.25 133.53125 266.160156 133.53125 266.066406 133.53125 Z M 266.066406 133.53125 " fill-opacity="1" fill-rule="nonzero"/><path fill="#009cda" d="M 172.46875 256.023438 C 171.472656 256.023438 170.496094 255.777344 169.621094 255.300781 L 76.804688 204.851562 C 74.882812 203.808594 73.691406 201.800781 73.691406 199.613281 L 73.691406 167.976562 C 73.691406 165.71875 74.96875 163.652344 76.988281 162.644531 C 77.832031 162.222656 78.742188 162.015625 79.648438 162.015625 C 80.921875 162.015625 82.183594 162.421875 83.234375 163.214844 L 174.460938 231.875 L 200.539062 231.875 L 291.761719 163.214844 C 292.816406 162.421875 294.078125 162.015625 295.347656 162.015625 C 296.257812 162.015625 297.167969 162.222656 298.007812 162.644531 C 300.03125 163.652344 301.308594 165.71875 301.308594 167.976562 L 301.308594 199.613281 C 301.308594 201.800781 300.113281 203.808594 298.195312 204.851562 L 205.378906 255.300781 C 204.503906 255.777344 203.523438 256.023438 202.53125 256.023438 Z M 172.46875 256.023438 " fill-opacity="1" fill-rule="nonzero"/><g clip-path="url(#72c08fdbfc)"><path fill="#004380" d="M 295.347656 167.976562 L 295.347656 199.613281 L 202.53125 250.0625 L 172.46875 250.0625 L 79.652344 199.613281 L 79.652344 167.976562 L 172.46875 237.835938 L 202.53125 237.835938 L 295.347656 167.976562 M 295.347656 156.054688 C 292.808594 156.054688 290.285156 156.867188 288.179688 158.453125 L 198.542969 225.914062 L 176.453125 225.914062 L 86.820312 158.453125 C 84.714844 156.867188 82.191406 156.054688 79.648438 156.054688 C 77.835938 156.054688 76.011719 156.46875 74.328125 157.308594 C 70.285156 159.328125 67.730469 163.457031 67.730469 167.976562 L 67.730469 199.613281 C 67.730469 203.984375 70.117188 208.003906 73.957031 210.089844 L 166.777344 260.539062 C 168.523438 261.488281 170.480469 261.984375 172.46875 261.984375 L 202.53125 261.984375 C 204.519531 261.984375 206.476562 261.488281 208.222656 260.539062 L 301.042969 210.089844 C 304.882812 208.003906 307.269531 203.984375 307.269531 199.613281 L 307.269531 167.976562 C 307.269531 163.457031 304.714844 159.328125 300.671875 157.308594 C 298.984375 156.46875 297.164062 156.054688 295.347656 156.054688 Z M 295.347656 156.054688 " fill-opacity="1" fill-rule="nonzero"/></g><path fill="#ffc008" d="M 172.46875 244.679688 L 79.652344 189.730469 L 79.652344 199.613281 L 172.46875 250.0625 L 202.53125 250.0625 L 295.347656 199.613281 L 295.347656 189.730469 L 202.53125 244.679688 Z M 172.46875 244.679688 " fill-opacity="1" fill-rule="nonzero"/><path fill="#fac903" d="M 187.496094 64.191406 C 177.269531 64.191406 169.007812 72.476562 169.007812 82.679688 C 169.007812 90.023438 173.292969 96.371094 179.515625 99.351562 L 179.515625 105.675781 L 195.492188 105.675781 L 195.492188 99.351562 C 201.695312 96.371094 206.003906 90.023438 206.003906 82.679688 C 205.980469 72.476562 197.695312 64.191406 187.496094 64.191406 Z M 187.496094 64.191406 " fill-opacity="1" fill-rule="nonzero"/><g clip-path="url(#317ab7809a)"><path fill="#ffc008" d="M 179.496094 105.695312 L 179.496094 112.246094 C 179.496094 114.386719 181.230469 116.121094 183.371094 116.121094 L 191.597656 116.121094 C 193.738281 116.121094 195.472656 114.386719 195.472656 112.246094 L 195.472656 105.695312 Z M 179.496094 105.695312 " fill-opacity="1" fill-rule="nonzero"/></g><g clip-path="url(#c616c5ba1d)"><path fill="#004380" d="M 187.496094 63.578125 C 176.964844 63.578125 168.394531 72.148438 168.394531 82.679688 C 168.394531 89.863281 172.496094 96.511719 178.902344 99.738281 L 178.902344 112.390625 C 178.902344 114.734375 180.820312 116.652344 183.167969 116.652344 L 191.859375 116.652344 C 194.207031 116.652344 196.125 114.734375 196.125 112.390625 L 196.125 99.757812 C 202.511719 96.535156 206.632812 89.882812 206.632812 82.699219 C 206.59375 72.148438 198.023438 63.578125 187.496094 63.578125 Z M 183.496094 86.921875 C 180.679688 86.597656 179.3125 85.738281 179.3125 83.636719 C 179.3125 81.78125 180.3125 80.925781 181.230469 80.925781 C 181.78125 80.925781 182.3125 81.210938 182.71875 81.699219 C 183.230469 82.332031 183.496094 83.269531 183.496094 84.414062 Z M 187.496094 88.3125 C 188.453125 88.3125 189.390625 88.289062 190.25 88.25 L 190.25 105.082031 L 184.71875 105.082031 L 184.71875 88.25 C 185.597656 88.289062 186.535156 88.3125 187.496094 88.3125 Z M 194.859375 106.308594 L 194.859375 108.308594 L 180.109375 108.308594 L 180.109375 106.308594 Z M 180.109375 109.53125 L 194.859375 109.53125 L 194.859375 111.53125 L 180.109375 111.53125 Z M 191.839844 115.410156 L 183.148438 115.410156 C 181.597656 115.410156 180.332031 114.246094 180.128906 112.757812 L 194.839844 112.757812 C 194.65625 114.246094 193.390625 115.410156 191.839844 115.410156 Z M 195.207031 98.800781 C 195.003906 98.902344 194.859375 99.125 194.859375 99.351562 L 194.859375 105.0625 L 191.472656 105.0625 L 191.472656 88.148438 C 194.65625 87.800781 196.882812 86.761719 196.882812 83.617188 C 196.882812 81.046875 195.289062 79.679688 193.738281 79.679688 C 192.820312 79.679688 191.921875 80.128906 191.289062 80.925781 C 190.617188 81.78125 190.25 82.984375 190.25 84.394531 L 190.25 87.003906 C 189.433594 87.046875 188.496094 87.066406 187.496094 87.066406 C 186.496094 87.066406 185.554688 87.046875 184.738281 87.003906 L 184.738281 84.394531 C 184.738281 82.984375 184.371094 81.78125 183.699219 80.925781 C 183.066406 80.128906 182.167969 79.679688 181.25 79.679688 C 179.679688 79.679688 178.109375 81.027344 178.109375 83.617188 C 178.109375 86.761719 180.332031 87.800781 183.515625 88.148438 L 183.515625 105.082031 L 180.109375 105.082031 L 180.109375 99.371094 C 180.109375 99.125 179.964844 98.921875 179.761719 98.820312 C 173.597656 95.859375 169.597656 89.535156 169.597656 82.699219 C 169.597656 72.84375 177.617188 64.824219 187.472656 64.824219 C 197.328125 64.824219 205.347656 72.84375 205.347656 82.699219 C 205.371094 89.515625 201.390625 95.839844 195.207031 98.800781 Z M 191.472656 86.921875 L 191.472656 84.414062 C 191.472656 83.269531 191.738281 82.332031 192.25 81.699219 C 192.65625 81.1875 193.1875 80.925781 193.738281 80.925781 C 194.65625 80.925781 195.65625 81.78125 195.65625 83.636719 C 195.65625 85.738281 194.308594 86.597656 191.472656 86.921875 Z M 188.105469 47.335938 L 188.105469 58.007812 C 188.105469 58.355469 187.839844 58.621094 187.496094 58.621094 C 187.148438 58.621094 186.882812 58.355469 186.882812 58.007812 L 186.882812 47.335938 C 186.882812 46.988281 187.148438 46.722656 187.496094 46.722656 C 187.839844 46.722656 188.105469 46.988281 188.105469 47.335938 Z M 162.785156 82.921875 L 151.949219 82.921875 C 151.601562 82.921875 151.335938 82.660156 151.335938 82.3125 C 151.335938 81.964844 151.601562 81.699219 151.949219 81.699219 L 162.785156 81.699219 C 163.128906 81.699219 163.394531 81.964844 163.394531 82.3125 C 163.394531 82.660156 163.128906 82.921875 162.785156 82.921875 Z M 223.652344 82.3125 C 223.652344 82.660156 223.386719 82.921875 223.039062 82.921875 L 212.207031 82.921875 C 211.859375 82.921875 211.59375 82.660156 211.59375 82.3125 C 211.59375 81.964844 211.859375 81.699219 212.207031 81.699219 L 223.039062 81.699219 C 223.367188 81.699219 223.652344 81.964844 223.652344 82.3125 Z M 170.457031 64.679688 C 170.699219 64.925781 170.699219 65.3125 170.457031 65.539062 C 170.332031 65.660156 170.171875 65.722656 170.027344 65.722656 C 169.863281 65.722656 169.722656 65.660156 169.597656 65.539062 L 161.925781 57.988281 C 161.683594 57.742188 161.683594 57.355469 161.925781 57.132812 C 162.171875 56.886719 162.558594 56.886719 162.785156 57.132812 Z M 213.0625 106.613281 C 213.308594 106.859375 213.308594 107.246094 213.0625 107.472656 C 212.941406 107.59375 212.777344 107.65625 212.632812 107.65625 C 212.46875 107.65625 212.328125 107.59375 212.207031 107.472656 L 204.53125 99.921875 C 204.289062 99.675781 204.289062 99.289062 204.53125 99.0625 C 204.777344 98.820312 205.164062 98.820312 205.390625 99.0625 Z M 170.457031 99.0625 C 170.699219 99.308594 170.679688 99.695312 170.457031 99.921875 L 162.785156 107.472656 C 162.660156 107.59375 162.519531 107.65625 162.355469 107.65625 C 162.191406 107.65625 162.027344 107.59375 161.925781 107.472656 C 161.683594 107.226562 161.703125 106.839844 161.925781 106.613281 L 169.597656 99.0625 C 169.84375 98.820312 170.230469 98.820312 170.457031 99.0625 Z M 204.511719 65.558594 C 204.269531 65.3125 204.289062 64.925781 204.511719 64.703125 L 212.183594 57.152344 C 212.429688 56.90625 212.816406 56.925781 213.042969 57.152344 C 213.285156 57.398438 213.265625 57.785156 213.042969 58.007812 L 205.371094 65.558594 C 205.246094 65.679688 205.105469 65.742188 204.941406 65.742188 C 204.796875 65.742188 204.636719 65.679688 204.511719 65.558594 Z M 178.578125 59.578125 C 178.699219 59.886719 178.558594 60.253906 178.25 60.375 C 178.167969 60.417969 178.085938 60.417969 178.007812 60.417969 C 177.761719 60.417969 177.535156 60.273438 177.433594 60.050781 L 175.496094 55.457031 C 175.375 55.152344 175.515625 54.785156 175.824219 54.664062 C 176.128906 54.539062 176.496094 54.683594 176.617188 54.988281 Z M 164.863281 92.1875 L 160.191406 94.085938 C 160.109375 94.125 160.027344 94.125 159.96875 94.125 C 159.722656 94.125 159.5 93.984375 159.394531 93.738281 C 159.273438 93.433594 159.417969 93.066406 159.722656 92.941406 L 164.394531 91.042969 C 164.703125 90.921875 165.070312 91.066406 165.191406 91.371094 C 165.3125 91.71875 165.171875 92.066406 164.863281 92.1875 Z M 210.125 72.433594 L 214.796875 70.539062 C 215.101562 70.414062 215.46875 70.558594 215.59375 70.863281 C 215.714844 71.171875 215.570312 71.539062 215.265625 71.660156 L 210.59375 73.558594 C 210.511719 73.597656 210.429688 73.597656 210.367188 73.597656 C 210.125 73.597656 209.898438 73.457031 209.796875 73.210938 C 209.65625 72.90625 209.816406 72.558594 210.125 72.433594 Z M 199.453125 55.457031 L 197.511719 60.050781 C 197.410156 60.273438 197.1875 60.417969 196.941406 60.417969 C 196.859375 60.417969 196.777344 60.394531 196.695312 60.375 C 196.390625 60.253906 196.25 59.886719 196.371094 59.578125 L 198.308594 54.988281 C 198.433594 54.683594 198.800781 54.539062 199.105469 54.664062 C 199.453125 54.785156 199.59375 55.132812 199.453125 55.457031 Z M 159.394531 70.863281 C 159.519531 70.558594 159.886719 70.394531 160.191406 70.539062 L 164.863281 72.433594 C 165.171875 72.558594 165.335938 72.925781 165.191406 73.230469 C 165.089844 73.476562 164.863281 73.617188 164.621094 73.617188 C 164.539062 73.617188 164.457031 73.597656 164.394531 73.578125 L 159.722656 71.679688 C 159.417969 71.515625 159.253906 71.171875 159.394531 70.863281 Z M 215.59375 93.757812 C 215.492188 94.003906 215.265625 94.148438 215.019531 94.148438 C 214.941406 94.148438 214.859375 94.125 214.796875 94.105469 L 210.125 92.207031 C 209.816406 92.085938 209.65625 91.71875 209.796875 91.414062 C 209.917969 91.105469 210.289062 90.941406 210.59375 91.085938 L 215.265625 92.984375 C 215.570312 93.105469 215.714844 93.453125 215.59375 93.757812 Z M 215.59375 93.757812 " fill-opacity="1" fill-rule="nonzero"/></g><g fill="#004380" fill-opacity="1"><g transform="translate(59.63514, 316.657513)"><g><path d="M 30.796875 0 L 23.703125 0 L 15.15625 -15.015625 L 10.375 -9.265625 L 10.375 0 L 3.609375 0 L 3.609375 -32.28125 L 10.375 -32.28125 L 10.375 -17.5 L 22.140625 -32.28125 L 29.625 -32.28125 L 19.828125 -19.78125 Z M 30.796875 0 "/></g></g></g><g fill="#004380" fill-opacity="1"><g transform="translate(91.637442, 316.657513)"><g><path d="M 2.796875 0 L 2.796875 -23.078125 L 9.171875 -23.078125 L 9.171875 -19.828125 C 9.867188 -20.835938 10.804688 -21.707031 11.984375 -22.4375 C 13.171875 -23.164062 14.664062 -23.53125 16.46875 -23.53125 C 17.257812 -23.53125 18.0625 -23.382812 18.875 -23.09375 C 19.695312 -22.8125 20.46875 -22.398438 21.1875 -21.859375 C 21.914062 -21.316406 22.5 -20.640625 22.9375 -19.828125 C 23.6875 -20.878906 24.664062 -21.757812 25.875 -22.46875 C 27.09375 -23.175781 28.445312 -23.53125 29.9375 -23.53125 C 30.789062 -23.53125 31.660156 -23.382812 32.546875 -23.09375 C 33.429688 -22.8125 34.242188 -22.351562 34.984375 -21.71875 C 35.734375 -21.082031 36.332031 -20.226562 36.78125 -19.15625 C 37.238281 -18.09375 37.46875 -16.78125 37.46875 -15.21875 L 37.46875 0 L 30.953125 0 L 30.953125 -14.421875 C 30.953125 -15.335938 30.769531 -16.078125 30.40625 -16.640625 C 30.039062 -17.203125 29.578125 -17.601562 29.015625 -17.84375 C 28.460938 -18.09375 27.875 -18.21875 27.25 -18.21875 C 26.664062 -18.21875 26.078125 -18.097656 25.484375 -17.859375 C 24.890625 -17.628906 24.382812 -17.257812 23.96875 -16.75 C 23.550781 -16.25 23.34375 -15.59375 23.34375 -14.78125 L 23.34375 0 L 16.859375 0 L 16.859375 -15 C 16.859375 -15.695312 16.671875 -16.285156 16.296875 -16.765625 C 15.921875 -17.242188 15.453125 -17.601562 14.890625 -17.84375 C 14.335938 -18.09375 13.769531 -18.21875 13.1875 -18.21875 C 12.59375 -18.21875 12 -18.09375 11.40625 -17.84375 C 10.8125 -17.601562 10.3125 -17.222656 9.90625 -16.703125 C 9.507812 -16.191406 9.3125 -15.550781 9.3125 -14.78125 L 9.3125 0 Z M 2.796875 0 "/></g></g></g><g fill="#004380" fill-opacity="1"><g transform="translate(131.606848, 316.657513)"><g><path d="M 9.359375 -23.078125 L 9.359375 0 L 3.125 0 L 3.125 -23.078125 Z M 9.421875 -32.25 L 9.421875 -26.375 L 3.078125 -26.375 L 3.078125 -32.25 Z M 9.421875 -32.25 "/></g></g></g><g fill="#004380" fill-opacity="1"><g transform="translate(144.08194, 316.657513)"><g><path d="M 2.796875 0 L 2.796875 -23.078125 L 9.203125 -23.078125 L 9.203125 -19.828125 C 9.554688 -20.390625 10.019531 -20.929688 10.59375 -21.453125 C 11.164062 -21.984375 11.890625 -22.421875 12.765625 -22.765625 C 13.640625 -23.109375 14.679688 -23.28125 15.890625 -23.28125 C 17.304688 -23.28125 18.625 -23.003906 19.84375 -22.453125 C 21.070312 -21.898438 22.066406 -21.03125 22.828125 -19.84375 C 23.585938 -18.664062 23.96875 -17.125 23.96875 -15.21875 L 23.96875 0 L 17.453125 0 L 17.453125 -14.421875 C 17.453125 -15.671875 17.078125 -16.609375 16.328125 -17.234375 C 15.585938 -17.859375 14.679688 -18.171875 13.609375 -18.171875 C 12.898438 -18.171875 12.210938 -18.039062 11.546875 -17.78125 C 10.890625 -17.53125 10.351562 -17.148438 9.9375 -16.640625 C 9.519531 -16.140625 9.3125 -15.519531 9.3125 -14.78125 L 9.3125 0 Z M 2.796875 0 "/></g></g></g><g fill="#ffc008" fill-opacity="1"><g transform="translate(178.606377, 316.657513)"><g><path d="M 3.609375 -32.28125 L 10.171875 -32.28125 L 10.171875 -5.515625 L 24.1875 -5.515625 L 24.1875 0 L 3.609375 0 Z M 3.609375 -32.28125 "/></g></g></g><g fill="#ffc008" fill-opacity="1"><g transform="translate(204.382289, 316.657513)"><g><path d="M 9.359375 -23.078125 L 9.359375 0 L 3.125 0 L 3.125 -23.078125 Z M 9.421875 -32.25 L 9.421875 -26.375 L 3.078125 -26.375 L 3.078125 -32.25 Z M 9.421875 -32.25 "/></g></g></g><g fill="#ffc008" fill-opacity="1"><g transform="translate(216.857381, 316.657513)"><g><path d="M 15.640625 0.453125 C 14.492188 0.453125 13.503906 0.300781 12.671875 0 C 11.835938 -0.300781 11.128906 -0.695312 10.546875 -1.1875 C 9.972656 -1.6875 9.5 -2.238281 9.125 -2.84375 C 8.757812 -3.457031 8.472656 -4.085938 8.265625 -4.734375 L 7.515625 0 L 2.796875 0 L 2.796875 -33.171875 L 9.328125 -33.171875 L 9.328125 -19.953125 C 9.609375 -20.441406 9.972656 -20.898438 10.421875 -21.328125 C 10.867188 -21.765625 11.390625 -22.144531 11.984375 -22.46875 C 12.578125 -22.800781 13.234375 -23.0625 13.953125 -23.25 C 14.679688 -23.4375 15.453125 -23.53125 16.265625 -23.53125 C 19.140625 -23.53125 21.390625 -22.492188 23.015625 -20.421875 C 24.648438 -18.359375 25.46875 -15.441406 25.46875 -11.671875 C 25.46875 -9.234375 25.09375 -7.101562 24.34375 -5.28125 C 23.601562 -3.46875 22.503906 -2.054688 21.046875 -1.046875 C 19.585938 -0.046875 17.785156 0.453125 15.640625 0.453125 Z M 14.21875 -4.234375 C 15.613281 -4.234375 16.773438 -4.8125 17.703125 -5.96875 C 18.640625 -7.125 19.109375 -9.054688 19.109375 -11.765625 C 19.109375 -14.160156 18.664062 -15.929688 17.78125 -17.078125 C 16.894531 -18.222656 15.691406 -18.796875 14.171875 -18.796875 C 13.085938 -18.796875 12.1875 -18.535156 11.46875 -18.015625 C 10.757812 -17.503906 10.226562 -16.726562 9.875 -15.6875 C 9.53125 -14.644531 9.347656 -13.335938 9.328125 -11.765625 C 9.328125 -9.035156 9.734375 -7.097656 10.546875 -5.953125 C 11.359375 -4.804688 12.582031 -4.234375 14.21875 -4.234375 Z M 14.21875 -4.234375 "/></g></g></g><g fill="#ffc008" fill-opacity="1"><g transform="translate(243.860718, 316.657513)"><g><path d="M 2.796875 0 L 2.796875 -23.078125 L 9.0625 -23.078125 L 9.0625 -17.609375 C 9.4375 -18.785156 9.960938 -19.816406 10.640625 -20.703125 C 11.316406 -21.585938 12.132812 -22.28125 13.09375 -22.78125 C 14.0625 -23.28125 15.160156 -23.53125 16.390625 -23.53125 C 16.597656 -23.53125 16.789062 -23.515625 16.96875 -23.484375 C 17.15625 -23.460938 17.296875 -23.429688 17.390625 -23.390625 L 17.390625 -17.1875 C 17.253906 -17.25 17.09375 -17.285156 16.90625 -17.296875 C 16.71875 -17.316406 16.550781 -17.332031 16.40625 -17.34375 C 15.125 -17.445312 14.03125 -17.410156 13.125 -17.234375 C 12.21875 -17.054688 11.476562 -16.75 10.90625 -16.3125 C 10.34375 -15.882812 9.9375 -15.359375 9.6875 -14.734375 C 9.4375 -14.109375 9.3125 -13.410156 9.3125 -12.640625 L 9.3125 0 Z M 2.796875 0 "/></g></g></g><g fill="#ffc008" fill-opacity="1"><g transform="translate(262.004274, 316.657513)"><g><path d="M 9.484375 0.453125 C 8.015625 0.453125 6.691406 0.175781 5.515625 -0.375 C 4.335938 -0.925781 3.40625 -1.726562 2.71875 -2.78125 C 2.039062 -3.832031 1.703125 -5.109375 1.703125 -6.609375 C 1.703125 -9.140625 2.644531 -11.0625 4.53125 -12.375 C 6.414062 -13.695312 9.398438 -14.378906 13.484375 -14.421875 L 16.359375 -14.46875 L 16.359375 -15.84375 C 16.359375 -16.90625 16.050781 -17.722656 15.4375 -18.296875 C 14.820312 -18.867188 13.863281 -19.144531 12.5625 -19.125 C 11.613281 -19.113281 10.710938 -18.890625 9.859375 -18.453125 C 9.003906 -18.023438 8.421875 -17.273438 8.109375 -16.203125 L 2.671875 -16.203125 C 2.765625 -17.867188 3.25 -19.238281 4.125 -20.3125 C 5.007812 -21.394531 6.207031 -22.203125 7.71875 -22.734375 C 9.226562 -23.265625 10.941406 -23.53125 12.859375 -23.53125 C 15.222656 -23.53125 17.117188 -23.234375 18.546875 -22.640625 C 19.972656 -22.054688 21.003906 -21.21875 21.640625 -20.125 C 22.285156 -19.03125 22.609375 -17.734375 22.609375 -16.234375 L 22.609375 0 L 17.171875 0 L 16.625 -3.96875 C 15.84375 -2.300781 14.859375 -1.144531 13.671875 -0.5 C 12.484375 0.132812 11.085938 0.453125 9.484375 0.453125 Z M 11.671875 -3.84375 C 12.265625 -3.84375 12.835938 -3.945312 13.390625 -4.15625 C 13.953125 -4.375 14.453125 -4.664062 14.890625 -5.03125 C 15.335938 -5.394531 15.691406 -5.804688 15.953125 -6.265625 C 16.222656 -6.734375 16.359375 -7.210938 16.359375 -7.703125 L 16.359375 -11.109375 L 14.015625 -11.078125 C 12.929688 -11.054688 11.921875 -10.921875 10.984375 -10.671875 C 10.046875 -10.429688 9.289062 -10.035156 8.71875 -9.484375 C 8.144531 -8.929688 7.859375 -8.1875 7.859375 -7.25 C 7.859375 -6.175781 8.226562 -5.335938 8.96875 -4.734375 C 9.71875 -4.140625 10.617188 -3.84375 11.671875 -3.84375 Z M 11.671875 -3.84375 "/></g></g></g><g fill="#ffc008" fill-opacity="1"><g transform="translate(287.601647, 316.657513)"><g><path d="M 2.796875 0 L 2.796875 -23.078125 L 9.0625 -23.078125 L 9.0625 -17.609375 C 9.4375 -18.785156 9.960938 -19.816406 10.640625 -20.703125 C 11.316406 -21.585938 12.132812 -22.28125 13.09375 -22.78125 C 14.0625 -23.28125 15.160156 -23.53125 16.390625 -23.53125 C 16.597656 -23.53125 16.789062 -23.515625 16.96875 -23.484375 C 17.15625 -23.460938 17.296875 -23.429688 17.390625 -23.390625 L 17.390625 -17.1875 C 17.253906 -17.25 17.09375 -17.285156 16.90625 -17.296875 C 16.71875 -17.316406 16.550781 -17.332031 16.40625 -17.34375 C 15.125 -17.445312 14.03125 -17.410156 13.125 -17.234375 C 12.21875 -17.054688 11.476562 -16.75 10.90625 -16.3125 C 10.34375 -15.882812 9.9375 -15.359375 9.6875 -14.734375 C 9.4375 -14.109375 9.3125 -13.410156 9.3125 -12.640625 L 9.3125 0 Z M 2.796875 0 "/></g></g></g><g fill="#ffc008" fill-opacity="1"><g transform="translate(305.745203, 316.657513)"><g><path d="M 6.390625 7.359375 C 4.804688 7.359375 3.691406 7.226562 3.046875 6.96875 C 2.398438 6.707031 2.078125 6.578125 2.078125 6.578125 L 2.078125 2.4375 L 4.359375 2.515625 C 5.347656 2.578125 6.144531 2.53125 6.75 2.375 C 7.363281 2.21875 7.832031 2.015625 8.15625 1.765625 C 8.476562 1.515625 8.707031 1.25 8.84375 0.96875 C 8.976562 0.695312 9.070312 0.476562 9.125 0.3125 L 9.546875 -0.953125 L 0.578125 -23.078125 L 7.03125 -23.078125 L 12.5625 -8.03125 L 18.171875 -23.078125 L 24.53125 -23.078125 L 15.171875 0.140625 C 14.367188 2.097656 13.519531 3.597656 12.625 4.640625 C 11.738281 5.679688 10.773438 6.394531 9.734375 6.78125 C 8.703125 7.164062 7.585938 7.359375 6.390625 7.359375 Z M 6.390625 7.359375 "/></g></g></g></svg>